# xmcd
#
# Track frame offsets: 
#        150
#        40492
#        56200
#        100453
#        129932
#        147694
#        194090
#        211519
#        238784
#        254305
#
# Disc length: 3995 seconds
#
# Revision: 0
# Processed by: cddbd v1.4PL0 Copyright (c) Steve Scherf et al.
# Submitted via: ExactAudioCopy v0.90b4
#
DISCID=9d0f990a
DTITLE=Van Morrison - At the Masador Theatre, disc 1
DYEAR=1980
DGENRE=Celtic
TTITLE0=Wavelength
TTITLE1=Kingdom Hall
TTITLE2=Summertime In England
TTITLE3=Satisfied
TTITLE4=Warm Love
TTITLE5=When Heart Is Open
TTITLE6=And It Stoned Me
TTITLE7=Troubadours
TTITLE8=Wild Night
TTITLE9=Spirit
EXTD=
EXTT0=
EXTT1=
EXTT2=
EXTT3=
EXTT4=
EXTT5=
EXTT6=
EXTT7=
EXTT8=
EXTT9=
PLAYORDER=
